<?xml version="1.0" encoding="utf-8"?>
<!-- Designed by Vexels.com - 2016 All Rights Reserved - https://vexels.com/terms-and-conditions/  -->

<svg version="1.1" id="Layer_1" xmlns="http://www.w3.org/2000/svg" xmlns:xlink="http://www.w3.org/1999/xlink" x="0px" y="0px"
	width="1200px" height="1200px" viewBox="0 0 1200 1200" enable-background="new 0 0 1200 1200" xml:space="preserve">
<g>
	<path fill="#575756" d="M599.883,55.474C296.241,55.474,50,299.319,50,599.982c0,300.782,246.241,544.543,549.883,544.543
		c303.876,0,550.117-243.761,550.117-544.543C1150,299.319,903.758,55.474,599.883,55.474z M599.883,1076.953
		c-265.423,0-481.494-213.979-481.494-476.971c0-262.952,216.071-476.891,481.494-476.891c265.661,0,481.573,213.94,481.573,476.891
		C1081.456,862.974,865.544,1076.953,599.883,1076.953z"/>
	<path fill="#575756" d="M639.805,636.727v121.267c9.051-3.83,16.862-9.478,23.67-17.254c11.526-12.802,17.02-28.392,17.02-47.733
		c0-16.129-3.636-28.312-11.138-37.363C665.332,650.808,657.054,644.118,639.805,636.727z"/>
	<path fill="#575756" d="M599.883,161.729c-244.149,0-442.891,196.615-442.891,438.253c0,241.753,198.742,438.368,442.891,438.368
		c244.308,0,442.97-196.615,442.97-438.368C1042.853,358.344,844.19,161.729,599.883,161.729z M730.858,797.215
		c-24.059,25.065-54.697,40.152-91.054,45.023v57.401h-67.692v-57.71c-23.286-3.905-43.015-10.017-58.875-18.141
		c-20.189-10.211-37.827-26.728-52.216-49.242c-14.311-22.201-22.743-49.472-24.989-80.957l-1.081-15.511l89.275-16.557l2.63,17.832
		c3.945,26.534,10.445,45.8,19.496,57.326c7.812,9.629,16.398,16.632,25.762,21.08V618.083
		c-20.347-5.22-41.002-13.653-61.734-25.179c-20.656-11.372-36.824-27.31-48.042-47.578c-11.063-19.959-16.632-42.702-16.632-67.692
		c0-44.52,16.244-81.036,48.351-108.73c18.644-16.283,44.869-27.037,78.057-32.337V308.1h67.692v28.546
		c28.855,4.757,52.834,14.853,71.249,30.055c27.773,22.819,44.789,54.383,50.362,93.683l2.477,17.095l-92.139,13.693l-2.63-17.174
		c-2.785-18.216-8.278-31.988-16.402-40.884c-3.636-3.985-7.89-7.387-12.916-10.172v121.651
		c22.28,5.723,36.979,10.132,45.487,13.847c19.416,8.354,35.586,18.874,48.042,31.176c12.766,12.572,22.589,27.615,29.398,44.715
		c6.73,16.941,10.057,35.391,10.057,54.965C772.787,732.078,758.707,768.36,730.858,797.215z"/>
	<path fill="#575756" d="M536.449,473.265c0,14.774,3.866,26.574,11.99,36.127c5.185,6.187,13.075,11.835,23.674,16.711V420.542
		c-8.512,3.561-15.475,8.433-21.274,14.853C541.092,446.149,536.449,458.487,536.449,473.265z"/>
</g>
</svg>
